<svg version="1" xmlns="http://www.w3.org/2000/svg" width="933.333" height="933.333" viewBox="0 0 700.000000 700.000000"><path d="M211.7 147.7c-.4.3-.7 84.3-.7 186.5V520h88V387.2l48.8-.5c52.2-.5 58.2-.9 79.5-6.3 24.8-6.2 44.3-16.9 59-32.3 9.2-9.6 12.7-14.8 18.3-26.6 15.8-33.4 14.5-84.2-3-114.8-21-36.8-59.7-55.8-119.6-58.7-22-1.1-169.3-1.4-170.3-.3zM380.9 211c21.7 5.2 37 19.6 41.6 39.1 1.9 8.2 1.9 25.5 0 33.7-4.7 19.8-18.6 33.5-40.2 39.4-7.2 2-10.8 2.2-45.5 2.6l-37.8.4V209h36.8c33.3 0 37.5.2 45.1 2z"/><path d="M310 267v48h7l.1-41.3c0-44.4.2-46.4 5.2-50.1 2.7-2 4.5-2.1 27-2.6 22.3-.5 23.4-.6 13.3-1.3-6-.4-20.3-.7-31.8-.7H310v48zM514.9 208.1c18.6 41.2 14.8 99-8.8 133.8-17.1 25.2-47.6 43.8-83.6 51-19 3.8-26 4.3-69.2 4.8l-43.3.5V531l-43.2.3-43.3.2 44.3.3 44.3.2 2.4-2.5 2.5-2.4v-58.3c0-64.3-.2-62.5 6.3-67.2 2.7-2 4.4-2.1 45-2.7 46.7-.7 54.1-1.4 76.6-7.5 15.4-4.2 33.6-12.8 44.9-21.4 28.6-21.5 43.2-53.7 43.2-95 0-24.3-3.7-41.7-12.5-59.7-6-12.1-10.3-17.7-5.6-7.2z"/></svg>